<?xml version="1.0" encoding="UTF-8" standalone="no"?>
<!-- Created with Inkscape (http://www.inkscape.org/) -->

<svg
   width="20.540257mm"
   height="20.540257mm"
   viewBox="0 0 20.540257 20.540257"
   version="1.1"
   id="svg26219"
   xml:space="preserve"
   inkscape:version="1.2.1 (9c6d41e410, 2022-07-14)"
   sodipodi:docname="ccid.svg"
   xmlns:inkscape="http://www.inkscape.org/namespaces/inkscape"
   xmlns:sodipodi="http://sodipodi.sourceforge.net/DTD/sodipodi-0.dtd"
   xmlns="http://www.w3.org/2000/svg"
   xmlns:svg="http://www.w3.org/2000/svg"><sodipodi:namedview
     id="namedview26221"
     pagecolor="#ffffff"
     bordercolor="#666666"
     borderopacity="1.0"
     inkscape:showpageshadow="2"
     inkscape:pageopacity="0.0"
     inkscape:pagecheckerboard="0"
     inkscape:deskcolor="#d1d1d1"
     inkscape:document-units="mm"
     showgrid="false"
     inkscape:zoom="1.3166807"
     inkscape:cx="78.606757"
     inkscape:cy="-28.860452"
     inkscape:window-width="1260"
     inkscape:window-height="697"
     inkscape:window-x="0"
     inkscape:window-y="0"
     inkscape:window-maximized="0"
     inkscape:current-layer="layer1" /><defs
     id="defs26216"><rect
       x="784.07458"
       y="1953.7421"
       width="239.51868"
       height="128.88898"
       id="rect27125" /></defs><g
     inkscape:label="Layer 1"
     inkscape:groupmode="layer"
     id="layer1"
     transform="translate(-203.008,-514.16882)"><rect
       style="fill:#f2c5c5;stroke:none;stroke-width:2.91042;stroke-linecap:round;paint-order:stroke fill markers;stop-color:#000000"
       id="rect26392"
       width="146.28958"
       height="55.863327"
       x="-17.28146"
       y="479.0582" /><rect
       style="fill:#f6c3c3;fill-opacity:1;stroke:none;stroke-width:2.91042;stroke-linecap:round;paint-order:stroke fill markers;stop-color:#000000"
       id="rect26809"
       width="120.16644"
       height="65.508797"
       x="-34.964817"
       y="511.20975" /><rect
       style="fill:#ffffff;fill-opacity:1;stroke:none;stroke-width:0.558053;stroke-linecap:round;stroke-dasharray:none;stroke-opacity:1;paint-order:stroke fill markers;stop-color:#000000"
       id="rect27593"
       width="20.540257"
       height="20.540257"
       x="203.008"
       y="514.16882" /><g
       aria-label="id"
       transform="matrix(0.35694035,0,0,0.35694035,-72.550489,-181.16863)"
       id="text27123"
       style="font-size:40px;line-height:1.25;white-space:pre;shape-inside:url(#rect27125);stroke:#ff0000;stroke-width:1.70079;stroke-dasharray:none;stroke-opacity:1"><path
         d="m 786.39422,1967.0222 h 5 v -4.52 h -5 z m 0,23.72 h 5.04 v -20.72 h -5.04 z"
         style="font-weight:500;font-family:'CC demo';-inkscape-font-specification:'CC demo Medium';fill:#ff0000;stroke:#ff0000;stroke-width:1.70079;stroke-dasharray:none;stroke-opacity:1"
         id="path27191" /><path
         d="m 815.15415,1962.4622 h -5 l 0.04,7.04 0.08,2.4 h -0.24 c -1.04,-1.52 -2.84,-2.4 -5.08,-2.4 -5.64,0 -9.36,4.08 -9.36,10.88 0,6.72 3.52,10.8 8.84,10.8 2.72,0 4.8,-1 6.04,-3 h 0.4 v 2.52 h 4.28 z m -4.64,17.96 c 0,4.56 -1.92,7 -4.92,7 -3.24,0 -5.08,-2.84 -5.08,-7.32 0,-4.32 1.68,-6.92 4.92,-6.92 3,0 5.08,2.56 5.08,7.24 z"
         style="font-weight:500;font-family:'CC demo';-inkscape-font-specification:'CC demo Medium';fill:#ff0000;stroke:#ff0000;stroke-width:1.70079;stroke-dasharray:none;stroke-opacity:1"
         id="path27193" /></g></g></svg>
